<svg width="18" height="18" viewBox="0 0 18 18" fill="none" xmlns="http://www.w3.org/2000/svg">
<g id="eye-svgrepo-com 1">
<g id="Group">
<g id="Group_2">
<path id="Vector" d="M1.84318 8.99983L2.68779 9.84444C6.16936 13.326 11.8334 13.326 15.315 9.84444L16.1563 8.99983L15.3117 8.15523C11.8302 4.67365 6.16614 4.67365 2.68456 8.15523L1.84318 8.99983ZM8.99976 13.0681C6.55621 13.0681 4.11265 12.1365 2.25259 10.2764L1.192 9.21582C1.07272 9.09654 1.07272 8.90312 1.192 8.78062L2.25259 7.72003C5.97272 3.9999 12.0268 3.9999 15.7469 7.72003L16.8075 8.78062C16.9268 8.8999 16.9268 9.09332 16.8075 9.21582L15.7469 10.2764C13.8869 12.1365 11.4433 13.0681 8.99976 13.0681Z" fill="black" stroke="black" stroke-width="0.154737"/>
<path id="Vector_2" d="M8.99947 6.66261C7.71 6.66261 6.6623 7.71031 6.6623 8.99978C6.6623 10.2893 7.71 11.337 8.99947 11.337C10.2889 11.337 11.3366 10.2893 11.3366 8.99978C11.3366 7.71031 10.2889 6.66261 8.99947 6.66261ZM8.99947 11.9495C7.37151 11.9495 6.0498 10.6245 6.0498 8.99978C6.0498 7.37182 7.37474 6.05011 8.99947 6.05011C10.6242 6.05011 11.9491 7.37504 11.9491 8.99978C11.9491 10.6277 10.6274 11.9495 8.99947 11.9495Z" fill="black" stroke="black" stroke-width="0.154737"/>
</g>
</g>
</g>
</svg>
