<svg width="60" height="20" viewBox="0 0 60 20" fill="none" xmlns="http://www.w3.org/2000/svg">
<path d="M26.888 14V5.6H32V6.428H27.896V9.38H31.388V10.196H27.896V14H26.888ZM33.8502 6.728C33.6502 6.728 33.4822 6.664 33.3462 6.536C33.2182 6.4 33.1542 6.232 33.1542 6.032C33.1542 5.84 33.2182 5.68 33.3462 5.552C33.4822 5.424 33.6502 5.36 33.8502 5.36C34.0422 5.36 34.2062 5.424 34.3422 5.552C34.4782 5.68 34.5462 5.84 34.5462 6.032C34.5462 6.232 34.4782 6.4 34.3422 6.536C34.2062 6.664 34.0422 6.728 33.8502 6.728ZM33.3462 14V8.048H34.3542V14H33.3462ZM36.1093 14V5.36H37.1173V14H36.1093ZM41.1214 14C40.5774 14 40.1494 13.868 39.8374 13.604C39.5254 13.34 39.3694 12.864 39.3694 12.176V8.9H38.3374V8.048H39.3694L39.5014 6.62H40.3774V8.048H42.1294V8.9H40.3774V12.176C40.3774 12.552 40.4534 12.808 40.6054 12.944C40.7574 13.072 41.0254 13.136 41.4094 13.136H42.0334V14H41.1214ZM45.922 14.144C45.354 14.144 44.85 14.016 44.41 13.76C43.97 13.496 43.622 13.132 43.366 12.668C43.118 12.204 42.994 11.656 42.994 11.024C42.994 10.4 43.118 9.856 43.366 9.392C43.614 8.92 43.958 8.556 44.398 8.3C44.846 8.036 45.362 7.904 45.946 7.904C46.522 7.904 47.018 8.036 47.434 8.3C47.858 8.556 48.182 8.896 48.406 9.32C48.63 9.744 48.742 10.2 48.742 10.688C48.742 10.776 48.738 10.864 48.73 10.952C48.73 11.04 48.73 11.14 48.73 11.252H43.99C44.014 11.708 44.118 12.088 44.302 12.392C44.494 12.688 44.73 12.912 45.01 13.064C45.298 13.216 45.602 13.292 45.922 13.292C46.338 13.292 46.686 13.196 46.966 13.004C47.246 12.812 47.45 12.552 47.578 12.224H48.574C48.414 12.776 48.106 13.236 47.65 13.604C47.202 13.964 46.626 14.144 45.922 14.144ZM45.922 8.756C45.442 8.756 45.014 8.904 44.638 9.2C44.27 9.488 44.058 9.912 44.002 10.472H47.746C47.722 9.936 47.538 9.516 47.194 9.212C46.85 8.908 46.426 8.756 45.922 8.756ZM50.078 14V8.048H50.99L51.074 9.188C51.258 8.796 51.538 8.484 51.914 8.252C52.29 8.02 52.754 7.904 53.306 7.904V8.96H53.03C52.678 8.96 52.354 9.024 52.058 9.152C51.762 9.272 51.526 9.48 51.35 9.776C51.174 10.072 51.086 10.48 51.086 11V14H50.078ZM56.7174 14.144C56.0054 14.144 55.4134 13.964 54.9414 13.604C54.4694 13.244 54.1934 12.756 54.1134 12.14H55.1454C55.2094 12.452 55.3734 12.724 55.6374 12.956C55.9094 13.18 56.2734 13.292 56.7294 13.292C57.1534 13.292 57.4654 13.204 57.6654 13.028C57.8654 12.844 57.9654 12.628 57.9654 12.38C57.9654 12.02 57.8334 11.78 57.5694 11.66C57.3134 11.54 56.9494 11.432 56.4774 11.336C56.1574 11.272 55.8374 11.18 55.5174 11.06C55.1974 10.94 54.9294 10.772 54.7134 10.556C54.4974 10.332 54.3894 10.04 54.3894 9.68C54.3894 9.16 54.5814 8.736 54.9654 8.408C55.3574 8.072 55.8854 7.904 56.5494 7.904C57.1814 7.904 57.6974 8.064 58.0974 8.384C58.5054 8.696 58.7414 9.144 58.8054 9.728H57.8094C57.7694 9.424 57.6374 9.188 57.4134 9.02C57.1974 8.844 56.9054 8.756 56.5374 8.756C56.1774 8.756 55.8974 8.832 55.6974 8.984C55.5054 9.136 55.4094 9.336 55.4094 9.584C55.4094 9.824 55.5334 10.012 55.7814 10.148C56.0374 10.284 56.3814 10.4 56.8134 10.496C57.1814 10.576 57.5294 10.676 57.8574 10.796C58.1934 10.908 58.4654 11.08 58.6734 11.312C58.8894 11.536 58.9974 11.864 58.9974 12.296C59.0054 12.832 58.8014 13.276 58.3854 13.628C57.9774 13.972 57.4214 14.144 56.7174 14.144Z" fill="#A18A68"/>
<path d="M15.2133 5.95389H7.18145C6.96063 5.29805 6.3403 4.82422 5.61095 4.82422C4.8816 4.82422 4.26127 5.29805 4.04045 5.95389H2.78674C2.49551 5.95389 2.2594 6.19 2.2594 6.48124C2.2594 6.77247 2.49551 7.00858 2.78674 7.00858H4.04049C4.2613 7.66442 4.88163 8.13826 5.61099 8.13826C6.34034 8.13826 6.96067 7.66442 7.18149 7.00858H15.2133C15.5046 7.00858 15.7407 6.77247 15.7407 6.48124C15.7407 6.19 15.5046 5.95389 15.2133 5.95389V5.95389ZM5.61095 7.08357C5.27883 7.08357 5.00862 6.81336 5.00862 6.48124C5.00862 6.14912 5.27883 5.87891 5.61095 5.87891C5.94307 5.87891 6.21328 6.14912 6.21328 6.48124C6.21328 6.81336 5.94307 7.08357 5.61095 7.08357Z" fill="#A18A68"/>
<path d="M15.2133 10.4724H13.9595C13.7387 9.81661 13.1184 9.34277 12.389 9.34277C11.6597 9.34277 11.0394 9.81661 10.8186 10.4724H2.78674C2.49551 10.4724 2.2594 10.7086 2.2594 10.9998C2.2594 11.291 2.49551 11.5271 2.78674 11.5271H10.8186C11.0394 12.183 11.6598 12.6568 12.3891 12.6568C13.1184 12.6568 13.7388 12.183 13.9596 11.5271H15.2133C15.5046 11.5271 15.7407 11.291 15.7407 10.9998C15.7407 10.7086 15.5046 10.4724 15.2133 10.4724ZM12.3891 11.6021C12.057 11.6021 11.7867 11.3319 11.7867 10.9998C11.7867 10.6677 12.057 10.3975 12.3891 10.3975C12.7212 10.3975 12.9914 10.6677 12.9914 10.9998C12.9914 11.3319 12.7212 11.6021 12.3891 11.6021Z" fill="#A18A68"/>
<path d="M15.2133 14.991H9.44084C9.22002 14.3352 8.59969 13.8613 7.87034 13.8613C7.14099 13.8613 6.52065 14.3352 6.29984 14.991H2.78674C2.49551 14.991 2.2594 15.2271 2.2594 15.5183C2.2594 15.8096 2.49551 16.0457 2.78674 16.0457H6.29984C6.52065 16.7015 7.14099 17.1754 7.87034 17.1754C8.59969 17.1754 9.22002 16.7015 9.44084 16.0457H15.2133C15.5046 16.0457 15.7407 15.8096 15.7407 15.5183C15.7407 15.2271 15.5046 14.991 15.2133 14.991ZM7.87034 16.1207C7.53822 16.1207 7.268 15.8505 7.268 15.5184C7.268 15.1863 7.53822 14.9161 7.87034 14.9161C8.20246 14.9161 8.47267 15.1862 8.47267 15.5183C8.47267 15.8505 8.20246 16.1207 7.87034 16.1207V16.1207Z" fill="#A18A68"/>
</svg>
