<svg width="14" height="14" viewBox="0 0 14 14" fill="none" xmlns="http://www.w3.org/2000/svg">
<g id="heart-svgrepo-com 1" clip-path="url(#clip0_2046_6507)">
<g id="Group">
<g id="Group_2">
<path id="Vector" d="M6.57705 12.74C6.73745 12.9004 6.95306 12.9898 7.17919 12.9898C7.40269 12.9898 7.62356 12.8977 7.78133 12.74L12.5064 8.01489C13.2243 7.29706 13.6187 6.34257 13.6213 5.33024C13.6213 4.31528 13.2269 3.3608 12.5091 2.64296C11.7912 1.92513 10.8394 1.53071 9.8244 1.53071C8.82784 1.53071 7.88914 1.91198 7.17656 2.60615C6.46136 1.90935 5.52002 1.52545 4.52083 1.52545C3.5085 1.52545 2.55665 1.91987 1.83881 2.63507C1.12098 3.35291 0.726562 4.30739 0.726562 5.32235C0.726562 6.33468 1.12361 7.28917 1.84144 8.007L6.57705 12.74ZM2.29633 3.09259C2.89059 2.49834 3.68204 2.16966 4.52346 2.16966C5.36488 2.16966 6.15897 2.49834 6.75585 3.09522L6.95043 3.2898C7.01091 3.35028 7.09242 3.38446 7.17919 3.38446C7.26333 3.38446 7.34747 3.35028 7.40795 3.2898L7.59727 3.10048C8.19415 2.5036 8.98561 2.17492 9.82966 2.17492C10.6711 2.17492 11.4625 2.5036 12.0568 3.09785C12.6537 3.69473 12.9797 4.48619 12.9797 5.32761C12.9797 6.16903 12.651 6.96049 12.0542 7.55737L7.32644 12.2851C7.25019 12.3613 7.11083 12.3613 7.03194 12.2851L2.29896 7.55211C1.70208 6.95523 1.3734 6.16377 1.3734 5.32235C1.3734 4.48093 1.70208 3.68947 2.29633 3.09259Z" fill="black" stroke="black" stroke-width="0.154737"/>
</g>
</g>
</g>
<defs>
<clipPath id="clip0_2046_6507">
<rect width="12.8947" height="12.8947" fill="white" transform="translate(0.726562 0.810303)"/>
</clipPath>
</defs>
</svg>
