<svg width="14" height="14" viewBox="0 0 14 14" fill="none" xmlns="http://www.w3.org/2000/svg">
<g id="shopping-cart 1" clip-path="url(#clip0_2046_6498)">
<path id="Vector" d="M4.53345 8.66254H4.53404C4.53453 8.66254 4.53503 8.66244 4.53552 8.66244H11.3848C11.5534 8.66244 11.7016 8.55059 11.748 8.38846L13.2591 3.0996C13.2916 2.98558 13.2688 2.863 13.1975 2.76836C13.1261 2.67372 13.0144 2.61804 12.8959 2.61804H3.66221L3.39216 1.40276C3.35369 1.22991 3.20042 1.10693 3.02333 1.10693H0.756682C0.54802 1.10693 0.378906 1.27605 0.378906 1.48471C0.378906 1.69337 0.54802 1.86248 0.756682 1.86248H2.72033C2.76814 2.07784 4.01263 7.67816 4.08425 8.00035C3.68277 8.17488 3.40111 8.57518 3.40111 9.04022C3.40111 9.66512 3.90953 10.1735 4.53444 10.1735H11.3848C11.5934 10.1735 11.7625 10.0044 11.7625 9.79577C11.7625 9.58711 11.5934 9.41799 11.3848 9.41799H4.53444C4.32617 9.41799 4.15666 9.24849 4.15666 9.04022C4.15666 8.83225 4.32558 8.66303 4.53345 8.66254ZM12.395 3.37359L11.0998 7.90689H4.83744L3.83004 3.37359H12.395Z" fill="black"/>
<path id="Vector_2" d="M4.15723 11.3067C4.15723 11.9316 4.66565 12.44 5.29055 12.44C5.91546 12.44 6.42388 11.9316 6.42388 11.3067C6.42388 10.6818 5.91546 10.1733 5.29055 10.1733C4.66565 10.1733 4.15723 10.6818 4.15723 11.3067ZM5.29055 10.9289C5.49882 10.9289 5.66833 11.0984 5.66833 11.3067C5.66833 11.5149 5.49882 11.6844 5.29055 11.6844C5.08228 11.6844 4.91278 11.5149 4.91278 11.3067C4.91278 11.0984 5.08228 10.9289 5.29055 10.9289Z" fill="black"/>
<path id="Vector_3" d="M9.49609 11.3067C9.49609 11.9316 10.0045 12.44 10.6294 12.44C11.2543 12.44 11.7627 11.9316 11.7627 11.3067C11.7627 10.6818 11.2543 10.1733 10.6294 10.1733C10.0045 10.1733 9.49609 10.6818 9.49609 11.3067ZM10.6294 10.9289C10.8377 10.9289 11.0072 11.0984 11.0072 11.3067C11.0072 11.5149 10.8377 11.6844 10.6294 11.6844C10.4212 11.6844 10.2516 11.5149 10.2516 11.3067C10.2516 11.0984 10.4212 10.9289 10.6294 10.9289Z" fill="black"/>
</g>
<defs>
<clipPath id="clip0_2046_6498">
<rect width="12.8947" height="12.8947" fill="white" transform="translate(0.378906 0.326111)"/>
</clipPath>
</defs>
</svg>
